<svg xmlns="http://www.w3.org/2000/svg" width="128" height="128"><path d="M115.415 49.5H80.064a64.618 64.618 0 0 0-13.771-11.651v-6.224l8.337-18.708a1.75 1.75 0 0 0-.519-2.089c-.326-.256-8.164-6.271-23.035-6.271s-22.709 6.015-23.036 6.271a1.749 1.749 0 0 0-.518 2.089l8.336 18.708v6.235c-4.843 3-27.608 18.629-28.987 47.816a34.638 34.638 0 0 0 23.661 34.713 66.9 66.9 0 0 0 20.544 3.054 69.344 69.344 0 0 0 16.358-1.883 5.737 5.737 0 0 0 4.245 1.883h43.736a5.759 5.759 0 0 0 5.753-5.753V55.257a5.759 5.759 0 0 0-5.753-5.757zM39.358 33h23.435v4.1H39.358zM51.076 8.057c10.524 0 17.235 3.288 19.753 4.791L63.407 29.5H38.745l-7.424-16.66c2.501-1.504 9.166-4.783 19.755-4.783zm0 111.886a63.453 63.453 0 0 1-19.471-2.885 31.133 31.133 0 0 1-21.238-31.217C11.715 57.31 34.874 42.514 38.079 40.6h25.995a59.7 59.7 0 0 1 11.178 8.9h-3.573a5.759 5.759 0 0 0-5.753 5.753v3.734a25.949 25.949 0 1 0 0 42.562v16.141a5.917 5.917 0 0 0 .036.628 66.25 66.25 0 0 1-14.886 1.625zm0-58.021a18.351 18.351 0 1 0 14.85 29.086v6.07a22.45 22.45 0 1 1 0-33.611v6.069a18.319 18.319 0 0 0-14.85-7.614zm14.85 18.351a14.85 14.85 0 1 1-14.85-14.851 14.867 14.867 0 0 1 14.85 14.851zm51.742 37.417a2.255 2.255 0 0 1-2.253 2.253H71.679a2.255 2.255 0 0 1-2.253-2.253V55.257A2.256 2.256 0 0 1 71.679 53h43.736a2.255 2.255 0 0 1 2.253 2.253z"/><path d="M112.39 56.542H74.705a1.75 1.75 0 0 0-1.75 1.75v14.2a1.751 1.751 0 0 0 1.75 1.75h37.685a1.751 1.751 0 0 0 1.75-1.75v-14.2a1.75 1.75 0 0 0-1.75-1.75zm-1.75 14.2H76.455v-10.7h34.185zM97.551 77.772h-8.007a1.751 1.751 0 0 0-1.75 1.75v7.029a1.751 1.751 0 0 0 1.75 1.75h8.007a1.751 1.751 0 0 0 1.75-1.75v-7.029a1.751 1.751 0 0 0-1.75-1.75zM95.8 84.8h-4.506v-3.528H95.8zM112.39 77.772h-8.007a1.75 1.75 0 0 0-1.75 1.75v7.029a1.75 1.75 0 0 0 1.75 1.75h8.007a1.751 1.751 0 0 0 1.75-1.75v-7.029a1.751 1.751 0 0 0-1.75-1.75zm-1.75 7.028h-4.507v-3.528h4.507zM82.712 77.772h-8.007a1.751 1.751 0 0 0-1.75 1.75v7.029a1.751 1.751 0 0 0 1.75 1.75h8.007a1.751 1.751 0 0 0 1.75-1.75v-7.029a1.751 1.751 0 0 0-1.75-1.75zm-1.75 7.028h-4.507v-3.528h4.507zM97.551 91.829h-8.007a1.751 1.751 0 0 0-1.75 1.75v7.028a1.75 1.75 0 0 0 1.75 1.75h8.007a1.75 1.75 0 0 0 1.75-1.75v-7.028a1.751 1.751 0 0 0-1.75-1.75zM95.8 98.857h-4.506v-3.528H95.8zM112.39 91.829h-8.007a1.75 1.75 0 0 0-1.75 1.75v21.086a1.75 1.75 0 0 0 1.75 1.75h8.007a1.751 1.751 0 0 0 1.75-1.75V93.579a1.751 1.751 0 0 0-1.75-1.75zm-1.75 21.086h-4.507V95.329h4.507zM82.712 91.829h-8.007a1.751 1.751 0 0 0-1.75 1.75v7.028a1.75 1.75 0 0 0 1.75 1.75h8.007a1.75 1.75 0 0 0 1.75-1.75v-7.028a1.751 1.751 0 0 0-1.75-1.75zm-1.75 7.028h-4.507v-3.528h4.507zM97.551 105.886h-8.007a1.751 1.751 0 0 0-1.75 1.75v7.029a1.751 1.751 0 0 0 1.75 1.75h8.007a1.751 1.751 0 0 0 1.75-1.75v-7.029a1.751 1.751 0 0 0-1.75-1.75zm-1.75 7.029h-4.507v-3.529H95.8zM82.712 105.886h-8.007a1.751 1.751 0 0 0-1.75 1.75v7.029a1.751 1.751 0 0 0 1.75 1.75h8.007a1.751 1.751 0 0 0 1.75-1.75v-7.029a1.751 1.751 0 0 0-1.75-1.75zm-1.75 7.029h-4.507v-3.529h4.507zM52.437 78.67v-5.333a9.269 9.269 0 0 1 4.029 2.127l1.928-2.61a10.547 10.547 0 0 0-5.957-2.637v-1.759h-2.581v1.73c-3.489.426-5.843 2.78-5.843 5.844 0 3.347 2.354 4.595 5.843 5.5v5.532a9.7 9.7 0 0 1-4.566-2.44l-2.043 2.525a11.629 11.629 0 0 0 6.609 3.035v1.9h2.581v-1.813c4.114-.283 6.468-2.666 6.468-5.928 0-3.461-2.581-4.794-6.468-5.673zm-2.581-.681c-1.531-.539-2.269-1.135-2.269-2.269a2.678 2.678 0 0 1 2.269-2.44zm2.581 9.247v-5.049c2.015.6 2.922 1.191 2.922 2.5 0 1.244-.992 2.322-2.922 2.549z"/></svg>